<svg width="294" height="103" viewBox="0 0 294 103" fill="none" xmlns="http://www.w3.org/2000/svg">
<mask id="mask0_148_77" style="mask-type:luminance" maskUnits="userSpaceOnUse" x="17" y="0" width="258" height="38">
<path d="M17.6013 0H274.768V37.2865H17.6013V0Z" fill="white"/>
</mask>
<g mask="url(#mask0_148_77)">
<path d="M253.664 26.2552C250.461 25.651 247.284 24.8593 244.164 23.8854C241.044 22.9062 237.955 21.7812 234.909 20.5468C231.857 19.302 228.825 17.9739 225.794 16.5937L216.612 12.3958C213.513 10.9895 210.357 9.60413 207.107 8.29163C206.289 7.9635 205.482 7.63538 204.648 7.32288L203.409 6.85413L202.159 6.39579C201.325 6.08329 200.466 5.80205 199.622 5.50517C199.195 5.36455 198.763 5.22392 198.336 5.08329C197.903 4.94788 197.482 4.80204 197.044 4.67184C196.169 4.41142 195.304 4.14058 194.419 3.901C193.976 3.776 193.534 3.651 193.091 3.53642L191.747 3.19788C190.857 2.97392 189.966 2.74475 189.054 2.55725L187.7 2.26559C187.247 2.17183 186.794 2.06767 186.336 1.99475L183.596 1.49996L180.836 1.0885C180.607 1.05725 180.377 1.01558 180.143 0.989544L179.45 0.911419L178.065 0.744752C177.601 0.697877 177.143 0.630168 176.674 0.59371L175.284 0.46871C171.57 0.145793 167.846 -0.00524838 164.133 0.0312103C160.424 0.067669 156.726 0.24996 153.07 0.583294C145.747 1.23954 138.591 2.47913 131.627 4.07809C124.674 5.70309 117.914 7.70309 111.367 9.99475C108.096 11.1458 104.862 12.3489 101.7 13.6406C98.5284 14.9218 95.4034 16.2656 92.3409 17.6718C98.9034 15.4791 105.523 13.401 112.258 11.6198C118.982 9.81767 125.815 8.29683 132.711 7.10934C136.164 6.51559 139.638 6.03642 143.117 5.64579C144.857 5.44267 146.601 5.29163 148.341 5.14059L150.961 4.9635C151.83 4.90621 152.705 4.87496 153.58 4.83329C157.07 4.68746 160.554 4.65621 164.018 4.77079L166.612 4.89059C167.476 4.94788 168.336 5.01559 169.195 5.07809L169.841 5.12496L170.482 5.18225L171.763 5.30725C172.19 5.35413 172.617 5.38538 173.044 5.43746L174.32 5.59892L175.591 5.75517C176.018 5.80725 176.435 5.88538 176.857 5.94788L178.117 6.14059L178.747 6.23954C178.955 6.27079 179.164 6.31767 179.372 6.35413L181.862 6.81767L184.325 7.35934C184.737 7.44267 185.138 7.55204 185.544 7.65621L186.758 7.95829C187.575 8.151 188.362 8.39059 189.159 8.61454L190.357 8.95309C190.752 9.07288 191.143 9.20309 191.534 9.32288C192.32 9.56767 193.096 9.8385 193.877 10.0989C200.101 12.2552 206.049 15.0052 212.013 17.8958C217.987 20.7864 223.992 23.8333 230.435 26.5781C231.669 27.1041 232.919 27.6145 234.185 28.1145C230.367 28.4062 226.539 28.625 222.7 28.7916L219.054 28.9218L215.403 29.0104C214.185 29.0468 212.966 29.0468 211.747 29.0625L209.919 29.0833C209.31 29.0885 208.7 29.0833 208.091 29.0833C203.211 29.1041 198.32 29.0052 193.429 28.8593C188.534 28.7135 183.638 28.4895 178.737 28.2187C173.836 27.9427 168.929 27.6302 164.018 27.2708C154.2 26.5677 144.372 25.7135 134.513 24.8854C124.659 24.052 114.768 23.2239 104.841 22.552L101.117 22.3073C99.8774 22.2239 98.6326 22.1458 97.3878 22.0729C94.8982 21.927 92.4034 21.7968 89.9034 21.6823C88.6534 21.625 87.4034 21.5833 86.1534 21.5312L82.3878 21.4114C81.1326 21.3906 79.8774 21.3645 78.6221 21.3489L76.7367 21.3385C76.1065 21.3281 75.4815 21.3281 74.8513 21.3333C73.5909 21.3437 72.3357 21.3385 71.0753 21.3698L69.1846 21.4062C68.5596 21.4218 67.9294 21.4479 67.2992 21.4687L65.4086 21.5416L63.5232 21.6406C62.268 21.6979 61.0128 21.7968 59.7576 21.8802C54.7367 22.2448 49.7419 22.8541 44.8357 23.7135C39.9242 24.5885 35.1169 25.7448 30.4971 27.2187C25.8826 28.6875 21.4503 30.4583 17.3565 32.5781C26.2055 29.1718 35.7471 27.0416 45.4138 25.9843C55.1065 24.9062 64.9242 24.8854 74.6951 25.3281C75.3044 25.3541 75.9138 25.3854 76.5284 25.4218L78.3565 25.526C79.5805 25.5989 80.8044 25.6927 82.0232 25.7656L85.6899 26.0416C86.9086 26.1406 88.1326 26.2395 89.3513 26.3489C91.7992 26.5677 94.2419 26.7968 96.6846 27.0468C99.1326 27.2812 101.58 27.5416 104.028 27.7968C113.82 28.8385 123.612 29.9635 133.44 31.0573C153.08 33.2395 172.888 35.2864 192.982 36.0677C203.023 36.4583 213.127 36.5104 223.237 36.0989C228.289 35.875 233.346 35.5625 238.383 35.0885C243.419 34.6093 248.44 34 253.429 33.25L274.252 30.125L253.664 26.2552Z" fill="#F7F8FD"/>
</g>
<mask id="mask1_148_77" style="mask-type:luminance" maskUnits="userSpaceOnUse" x="190" y="31" width="88" height="21">
<path d="M190.768 31.9531H277.258V51.9531H190.768V31.9531Z" fill="white"/>
</mask>
<g mask="url(#mask1_148_77)">
<path d="M198.409 47.5625C206.169 49.2604 214.039 50.5104 221.95 51.2343C231.872 52.1458 241.982 52.276 251.841 50.6823C256.638 49.9062 261.388 48.7083 265.883 46.8489C269.565 45.3229 276.544 42.8437 277.205 38.2604C277.445 36.6354 277.508 34.1771 275.466 32.9114C272.83 31.276 269.299 32.9218 266.836 33.8593C263.893 34.9791 260.992 36.1666 257.815 37.0364C253.846 38.125 249.742 39.026 245.596 39.8333C240.924 40.7343 236.164 41.5468 231.357 42.1562C233.732 42.552 237.669 43.0833 239.804 43.3489C242.351 43.6666 244.914 43.9427 247.492 44.1666C250.2 44.401 252.997 44.5781 255.799 44.6666C243.33 47.1718 222.096 49.3646 191.216 45.8177C193.643 46.4427 196.065 47.0521 198.409 47.5625Z" fill="#5CE1E6"/>
</g>
<path d="M25.4639 75.4102C25.6983 75.4102 25.8702 75.4674 25.9847 75.5768C26.0941 75.6758 26.1566 75.7747 26.1722 75.8685C26.24 76.0768 26.2035 76.3424 26.0681 76.6602L17.1931 98.7643C16.7035 99.9466 16.24 100.723 15.7972 101.098C15.6827 101.212 15.5264 101.322 15.3181 101.431C14.6514 101.905 13.9118 102.139 13.1097 102.139C12.2347 102.139 11.4327 101.879 10.7139 101.348C10.0056 100.806 9.53162 100.108 9.29724 99.2435C9.28162 99.1914 9.24516 99.1185 9.19308 99.0352C9.15141 98.9518 9.10974 98.8633 9.06808 98.7643L0.130576 76.6602C0.005576 76.3424 -0.0308827 76.0768 0.0264093 75.8685C0.0524507 75.8008 0.114951 75.7122 0.213909 75.5977C0.30766 75.4727 0.469117 75.4102 0.693076 75.4102H4.15141C4.62016 75.4102 4.92224 75.6341 5.04724 76.0768L13.0056 95.8685C13.0316 95.8841 13.0472 95.9049 13.0472 95.931C13.0472 95.9466 13.0472 95.9518 13.0472 95.9518L13.1722 95.931C13.1722 95.931 13.1722 95.9258 13.1722 95.9102C13.1827 95.8997 13.1931 95.8841 13.1931 95.8685L21.0264 76.0768C21.2191 75.6341 21.5316 75.4102 21.9639 75.4102H25.4639Z" fill="#F7F8FD"/>
<path d="M48.4285 78.7435L57.4076 100.889C57.5326 101.181 57.5639 101.441 57.5118 101.66C57.4805 101.743 57.418 101.848 57.3243 101.973C57.2253 102.087 57.0535 102.139 56.8035 102.139H53.3868C52.9285 102.139 52.616 101.905 52.4493 101.431L44.5326 81.6393C44.5014 81.5977 44.491 81.5768 44.491 81.5768H44.366C44.366 81.5768 44.3555 81.5872 44.3451 81.5977C44.3451 81.6133 44.3295 81.6393 44.3035 81.681L40.2201 92.0352H44.1785C44.6212 92.0352 44.9285 92.2435 45.0951 92.6602L46.2618 95.5143C46.3555 95.8789 46.3087 96.181 46.116 96.431C45.9493 96.7383 45.6785 96.8893 45.3035 96.8893H38.3035L36.4701 101.452C36.3035 101.91 36.0014 102.139 35.5743 102.139H32.0743C31.8087 102.139 31.6264 102.087 31.5326 101.973C31.4337 101.848 31.3764 101.743 31.366 101.66C31.293 101.467 31.3139 101.212 31.4285 100.889L40.3451 78.7435C40.7722 77.6081 41.241 76.8268 41.741 76.4102C41.8087 76.3685 41.8868 76.3164 41.9701 76.2435C42.0535 76.1758 42.1368 76.1185 42.2201 76.0768C42.8555 75.6341 43.5951 75.4102 44.4285 75.4102C45.3035 75.4102 46.0847 75.681 46.7826 76.2227C47.491 76.7539 47.9753 77.431 48.241 78.2643C48.2826 78.3216 48.3139 78.3997 48.3451 78.4935C48.3712 78.5768 48.3972 78.6602 48.4285 78.7435Z" fill="#F7F8FD"/>
<path d="M83.3111 75.7643C83.4465 75.7643 83.634 75.8268 83.8736 75.9518C84.108 76.0768 84.2278 76.3893 84.2278 76.8893V101.014C84.2278 101.504 84.108 101.816 83.8736 101.952C83.634 102.077 83.4465 102.139 83.3111 102.139H80.3736C80.233 102.139 80.0507 102.077 79.832 101.952C79.608 101.816 79.4986 101.504 79.4986 101.014V91.1601H67.3945V101.014C67.3945 101.504 67.2799 101.816 67.0611 101.952C66.8372 102.077 66.6497 102.139 66.4986 102.139H63.5819C63.4257 102.139 63.233 102.077 62.9986 101.952C62.7747 101.816 62.6653 101.504 62.6653 101.014V76.8893C62.6653 76.3893 62.7747 76.0768 62.9986 75.9518C63.233 75.8268 63.4257 75.7643 63.5819 75.7643H66.4986C66.6497 75.7643 66.8372 75.8268 67.0611 75.9518C67.2799 76.0768 67.3945 76.3893 67.3945 76.8893V86.4309H79.4986V76.8893C79.4986 76.3893 79.608 76.0768 79.832 75.9518C80.0507 75.8268 80.233 75.7643 80.3736 75.7643H83.3111Z" fill="#F7F8FD"/>
<path d="M106.457 78.7435L115.436 100.889C115.561 101.181 115.593 101.441 115.541 101.66C115.509 101.743 115.447 101.848 115.353 101.973C115.254 102.087 115.082 102.139 114.832 102.139H111.416C110.957 102.139 110.645 101.905 110.478 101.431L102.561 81.6393C102.53 81.5977 102.52 81.5768 102.52 81.5768H102.395C102.395 81.5768 102.384 81.5872 102.374 81.5977C102.374 81.6133 102.358 81.6393 102.332 81.681L98.2489 92.0352H102.207C102.65 92.0352 102.957 92.2435 103.124 92.6602L104.291 95.5143C104.384 95.8789 104.337 96.181 104.145 96.431C103.978 96.7383 103.707 96.8893 103.332 96.8893H96.3322L94.4989 101.452C94.3322 101.91 94.0301 102.139 93.603 102.139H90.103C89.8374 102.139 89.6551 102.087 89.5614 101.973C89.4624 101.848 89.4051 101.743 89.3947 101.66C89.3218 101.467 89.3426 101.212 89.4572 100.889L98.3739 78.7435C98.801 77.6081 99.2697 76.8268 99.7697 76.4102C99.8374 76.3685 99.9155 76.3164 99.9989 76.2435C100.082 76.1758 100.166 76.1185 100.249 76.0768C100.884 75.6341 101.624 75.4102 102.457 75.4102C103.332 75.4102 104.113 75.681 104.811 76.2227C105.52 76.7539 106.004 77.431 106.27 78.2643C106.311 78.3216 106.343 78.3997 106.374 78.4935C106.4 78.5768 106.426 78.6602 106.457 78.7435Z" fill="#F7F8FD"/>
<path d="M143.319 75.7643C143.444 75.7643 143.621 75.8268 143.861 75.9518C144.095 76.0664 144.215 76.3789 144.215 76.8893V98.0143C144.215 99.5716 143.991 100.634 143.548 101.202C143.09 101.827 142.392 102.139 141.465 102.139H139.132C138.699 102.139 138.34 102.103 138.048 102.035C137.892 101.993 137.741 101.947 137.59 101.889C137.434 101.837 137.298 101.764 137.173 101.681C136.923 101.53 136.694 101.296 136.486 100.973C136.371 100.837 136.246 100.671 136.111 100.473C135.986 100.28 135.861 100.056 135.736 99.8059L125.611 81.8268C125.579 81.7851 125.553 81.7643 125.527 81.7643C125.512 81.7539 125.507 81.7434 125.507 81.7434H125.361C125.361 81.7434 125.361 81.7539 125.361 81.7643C125.361 81.7643 125.361 81.7799 125.361 81.8059V101.014C125.361 101.504 125.241 101.816 125.007 101.952C124.783 102.077 124.6 102.139 124.465 102.139H121.611C121.454 102.139 121.262 102.077 121.027 101.952C120.803 101.816 120.694 101.504 120.694 101.014V79.8893C120.694 78.3372 120.913 77.2591 121.361 76.6601C121.829 76.0664 122.527 75.7643 123.444 75.7643H125.84C126.048 75.7643 126.246 75.7747 126.444 75.7851C126.637 75.8007 126.803 75.8164 126.944 75.8268C127.288 75.8997 127.59 76.0247 127.84 76.2018C128.059 76.358 128.288 76.608 128.527 76.9518C128.621 77.0924 128.725 77.2591 128.84 77.4518C128.965 77.6497 129.09 77.8632 129.215 78.0976L139.319 96.0559C139.345 96.1289 139.382 96.1601 139.423 96.1601H139.569C139.569 96.1341 139.569 96.1184 139.569 96.1184C139.569 96.1184 139.569 96.1132 139.569 96.0976V76.8893C139.569 76.3789 139.678 76.0664 139.902 75.9518C140.137 75.8268 140.324 75.7643 140.465 75.7643H143.319Z" fill="#F7F8FD"/>
<path d="M181.162 86.3684C182.813 86.3684 184.078 86.9622 184.953 88.1393C185.787 89.2799 186.203 90.8997 186.203 92.9934V95.8059C186.203 97.6393 185.797 99.1393 184.995 100.306C184.162 101.504 182.86 102.098 181.099 102.098H166.682C166.526 102.098 166.334 102.046 166.099 101.931C165.86 101.806 165.745 101.504 165.745 101.014V98.4518C165.745 97.9674 165.86 97.6705 166.099 97.5559C166.334 97.4309 166.526 97.3684 166.682 97.3684H180.328C180.604 97.3684 180.797 97.3216 180.912 97.2226C181.037 97.1289 181.125 97.0351 181.182 96.9518C181.375 96.6341 181.474 96.1914 181.474 95.6184V92.8684C181.474 92.0768 181.339 91.5872 181.078 91.3893C180.828 91.1966 180.584 91.0976 180.349 91.0976H170.766C170.11 91.0976 169.438 91.0143 168.745 90.8476C168.047 90.6809 167.459 90.2643 166.974 89.5976C166.141 88.4309 165.724 86.733 165.724 84.4934V82.0559C165.724 80.1809 166.141 78.6705 166.974 77.5143C167.792 76.3476 169.078 75.7643 170.828 75.7643H184.599C184.735 75.7643 184.917 75.8268 185.141 75.9518C185.375 76.0664 185.495 76.3632 185.495 76.8476V79.4101C185.495 79.8997 185.375 80.2018 185.141 80.3268C184.917 80.4414 184.735 80.4934 184.599 80.4934H171.599C171.318 80.4934 171.12 80.5351 170.995 80.6184C170.88 80.7018 170.797 80.8007 170.745 80.9101C170.563 81.2591 170.474 81.7018 170.474 82.2434V84.6184C170.474 85.4101 170.599 85.9049 170.849 86.0976C171.099 86.2799 171.334 86.3684 171.557 86.3684H181.162Z" fill="#F7F8FD"/>
<path d="M210.826 75.7643C210.951 75.7643 211.128 75.8268 211.368 75.9518C211.602 76.0768 211.722 76.3893 211.722 76.8893V79.3476C211.722 79.8632 211.602 80.1809 211.368 80.3059C211.128 80.4309 210.951 80.4934 210.826 80.4934H199.347C198.623 80.4934 198.076 80.5716 197.701 80.7226C197.31 80.8476 196.982 81.0872 196.722 81.4309C196.498 81.7539 196.316 82.2174 196.18 82.8268C196.139 83.1184 196.102 83.4674 196.076 83.8684C196.045 84.2591 196.034 84.7018 196.034 85.2018V92.6393C196.034 93.1132 196.045 93.5507 196.076 93.9518C196.102 94.358 196.139 94.7174 196.18 95.0351C196.248 95.3268 196.326 95.5924 196.409 95.8268C196.493 96.0664 196.597 96.2643 196.722 96.4309C196.982 96.7799 197.31 97.0143 197.701 97.1393C198.076 97.2955 198.623 97.3684 199.347 97.3684H210.826C210.951 97.3684 211.128 97.4309 211.368 97.5559C211.602 97.6809 211.722 97.9934 211.722 98.4934V101.014C211.722 101.504 211.602 101.816 211.368 101.952C211.128 102.077 210.951 102.139 210.826 102.139H199.201C197.81 102.139 196.602 101.952 195.576 101.577C194.602 101.243 193.784 100.66 193.118 99.8268C192.462 98.983 191.998 97.9414 191.722 96.7018C191.566 96.0664 191.456 95.3632 191.389 94.5976C191.331 93.8216 191.305 92.9882 191.305 92.0976V85.7643C191.305 84.8893 191.331 84.0716 191.389 83.3059C191.456 82.5455 191.566 81.8476 191.722 81.2226C191.998 79.9466 192.462 78.9049 193.118 78.0976C193.743 77.2955 194.56 76.6966 195.576 76.3059C196.602 75.9466 197.81 75.7643 199.201 75.7643H210.826Z" fill="#F7F8FD"/>
<path d="M238.572 78.0976C239.197 78.8632 239.656 79.9049 239.947 81.2226C240.083 81.8476 240.187 82.5455 240.26 83.3059C240.328 84.0716 240.364 84.8893 240.364 85.7643V92.0976C240.364 92.9882 240.328 93.8216 240.26 94.5976C240.187 95.3632 240.083 96.0507 239.947 96.6601C239.656 97.9674 239.197 99.0247 238.572 99.8268C237.916 100.66 237.093 101.243 236.093 101.577C235.062 101.952 233.854 102.139 232.468 102.139H224.677C223.27 102.139 222.078 101.952 221.093 101.577C220.093 101.243 219.265 100.655 218.614 99.8059C217.974 98.9726 217.515 97.9257 217.239 96.6601C217.083 96.0507 216.974 95.3632 216.906 94.5976C216.849 93.8216 216.822 92.9882 216.822 92.0976V85.7643C216.822 83.9309 216.958 82.4205 217.239 81.2226C217.515 79.9726 217.974 78.9309 218.614 78.0976C219.265 77.2955 220.093 76.6966 221.093 76.3059C222.119 75.9466 223.312 75.7643 224.677 75.7643H232.468C233.854 75.7643 235.062 75.9466 236.093 76.3059C237.093 76.6966 237.916 77.2955 238.572 78.0976ZM235.614 85.2226C235.614 84.7539 235.599 84.3216 235.572 83.9309C235.557 83.5455 235.515 83.1914 235.447 82.8684C235.364 82.2747 235.182 81.7955 234.906 81.4309C234.697 81.1289 234.375 80.8893 233.947 80.7226C233.739 80.6549 233.494 80.5976 233.218 80.5559C232.953 80.5143 232.656 80.4934 232.322 80.4934H224.843C224.494 80.4934 224.187 80.5143 223.927 80.5559C223.661 80.5976 223.427 80.6549 223.218 80.7226C222.786 80.8893 222.458 81.1289 222.239 81.4309C222.114 81.5976 222.01 81.8059 221.927 82.0559C221.843 82.2955 221.765 82.5664 221.697 82.8684C221.656 83.1914 221.619 83.5455 221.593 83.9309C221.562 84.3216 221.552 84.7539 221.552 85.2226V92.6601C221.552 93.1341 221.562 93.5716 221.593 93.9726C221.619 94.3632 221.656 94.7174 221.697 95.0351C221.765 95.3164 221.843 95.5768 221.927 95.8268C222.01 96.0664 222.114 96.2643 222.239 96.4309C222.458 96.7799 222.786 97.0143 223.218 97.1393C223.593 97.2955 224.135 97.3684 224.843 97.3684H232.322C233.015 97.3684 233.557 97.2955 233.947 97.1393C234.375 97.0143 234.697 96.7799 234.906 96.4309C235.156 96.1132 235.333 95.6497 235.447 95.0351C235.515 94.7174 235.557 94.3632 235.572 93.9726C235.599 93.5716 235.614 93.1341 235.614 92.6601V85.2226Z" fill="#F7F8FD"/>
<path d="M267.261 83.4101V83.5976C267.261 83.5716 267.261 83.5559 267.261 83.5559C267.261 83.5455 267.261 83.5247 267.261 83.4934C267.261 83.483 267.261 83.4674 267.261 83.4518C267.261 83.4414 267.261 83.4257 267.261 83.4101ZM267.865 100.723C267.99 100.889 268.032 101.15 267.99 101.493C267.933 101.926 267.688 102.139 267.261 102.139H263.74C263.459 102.139 263.24 102.072 263.074 101.931C263.001 101.889 262.938 101.827 262.886 101.743C262.845 101.66 262.787 101.577 262.72 101.493L256.928 91.2226H250.199V101.014C250.199 101.504 250.084 101.816 249.865 101.952C249.641 102.077 249.454 102.139 249.303 102.139H246.386C246.23 102.139 246.037 102.077 245.803 101.952C245.579 101.816 245.47 101.504 245.47 101.014V87.5976C245.47 87.0976 245.579 86.7955 245.803 86.6809C246.037 86.5559 246.23 86.4934 246.386 86.4934H260.282C261.1 86.4934 261.667 86.2643 261.99 85.8059C262.324 85.3372 262.49 84.5664 262.49 83.4934C262.49 82.4414 262.324 81.6757 261.99 81.2018C261.667 80.733 261.1 80.4934 260.282 80.4934H246.386C246.23 80.4934 246.037 80.4414 245.803 80.3268C245.579 80.2018 245.47 79.8997 245.47 79.4101V76.8893C245.47 76.3789 245.579 76.0664 245.803 75.9518C246.037 75.8268 246.23 75.7643 246.386 75.7643H261.115C263.308 75.7643 264.886 76.4466 265.845 77.8059C266.761 79.1289 267.23 81.0247 267.261 83.4934C267.23 85.9674 266.761 87.8632 265.845 89.1809C265.037 90.2955 263.85 90.9466 262.282 91.1393L267.865 100.723Z" fill="#F7F8FD"/>
<path d="M292.335 96.3684C292.47 96.3684 292.658 96.4309 292.897 96.5559C293.132 96.6705 293.252 96.9726 293.252 97.4726V100.973C293.252 101.473 293.132 101.78 292.897 101.889C292.658 102.004 292.47 102.056 292.335 102.056H280.981C280.272 102.056 279.616 102.014 279.022 101.931C278.439 101.848 277.897 101.712 277.397 101.514C276.356 101.155 275.528 100.572 274.918 99.7643C274.278 98.9309 273.819 97.8893 273.543 96.6393C273.429 96.0976 273.335 95.5091 273.252 94.8684C273.179 94.233 273.137 93.5455 273.127 92.8059V92.6393L273.189 88.6184C273.241 88.3841 273.361 88.1132 273.543 87.8059C274.002 86.9726 274.72 86.5299 275.71 86.4726L292.21 86.4309C292.335 86.4309 292.507 86.4934 292.731 86.6184C292.965 86.733 293.085 87.0299 293.085 87.5143V90.0559C293.085 90.5455 292.965 90.8476 292.731 90.9726C292.507 91.0976 292.335 91.1601 292.21 91.1601H277.918C277.918 91.1601 277.908 91.2799 277.897 91.5143C277.882 91.7539 277.866 92.0247 277.856 92.3268C277.856 92.6184 277.856 92.8841 277.856 93.1184C277.856 93.358 277.856 93.4726 277.856 93.4726C277.866 93.5559 277.877 93.6497 277.877 93.7434C277.877 93.8424 277.887 93.9309 277.918 94.0143C278.002 94.6132 278.179 95.0924 278.46 95.4518C278.71 95.7747 279.028 96.0091 279.418 96.1601C279.653 96.2174 279.903 96.2643 280.168 96.3059C280.429 96.3476 280.736 96.3684 281.085 96.3684H292.335ZM292.356 75.7018C292.481 75.7018 292.658 75.7643 292.897 75.8893C293.132 76.0143 293.252 76.3268 293.252 76.8268V79.3476C293.252 79.8372 293.132 80.1393 292.897 80.2643C292.658 80.3893 292.481 80.4518 292.356 80.4518L273.981 80.4309C273.856 80.4309 273.679 80.3789 273.46 80.2643C273.236 80.1393 273.127 79.8372 273.127 79.3476V76.8476C273.127 76.3372 273.236 76.0143 273.46 75.8893C273.679 75.7643 273.856 75.7018 273.981 75.7018H292.356Z" fill="#F7F8FD"/>
</svg>
